<mxfile host="app.diagrams.net" modified="2024-04-06T03:25:55.860Z" agent="Mozilla/5.0 (Macintosh; Intel Mac OS X 10_15_7) AppleWebKit/537.36 (KHTML, like Gecko) Chrome/123.0.0.0 Safari/537.36" etag="hSxRTSAF-_2ZkNGjEoHD" version="24.2.2" type="github">
  <diagram name="페이지-1" id="7VR-YZdjgw9keZSOpcH8">
    <mxGraphModel dx="1940" dy="1368" grid="0" gridSize="10" guides="1" tooltips="1" connect="1" arrows="1" fold="1" page="1" pageScale="1" pageWidth="1920" pageHeight="1200" math="0" shadow="0">
      <root>
        <mxCell id="0" />
        <mxCell id="1" parent="0" />
        <mxCell id="dzRAiHNFtbagDPupk4Ih-3" style="rounded=0;orthogonalLoop=1;jettySize=auto;html=1;endArrow=none;endFill=0;" edge="1" parent="1" source="dzRAiHNFtbagDPupk4Ih-1" target="dzRAiHNFtbagDPupk4Ih-2">
          <mxGeometry relative="1" as="geometry" />
        </mxCell>
        <mxCell id="dzRAiHNFtbagDPupk4Ih-1" value="&lt;font style=&quot;font-size: 18px;&quot;&gt;STUENT&lt;/font&gt;" style="whiteSpace=wrap;html=1;align=center;" vertex="1" parent="1">
          <mxGeometry x="915" y="222" width="149" height="71" as="geometry" />
        </mxCell>
        <mxCell id="dzRAiHNFtbagDPupk4Ih-9" style="edgeStyle=elbowEdgeStyle;rounded=0;orthogonalLoop=1;jettySize=auto;html=1;elbow=vertical;endArrow=none;endFill=0;" edge="1" parent="1" source="dzRAiHNFtbagDPupk4Ih-2" target="dzRAiHNFtbagDPupk4Ih-7">
          <mxGeometry relative="1" as="geometry" />
        </mxCell>
        <mxCell id="dzRAiHNFtbagDPupk4Ih-10" style="edgeStyle=elbowEdgeStyle;rounded=0;orthogonalLoop=1;jettySize=auto;html=1;elbow=vertical;endArrow=none;endFill=0;" edge="1" parent="1" source="dzRAiHNFtbagDPupk4Ih-2" target="dzRAiHNFtbagDPupk4Ih-6">
          <mxGeometry relative="1" as="geometry" />
        </mxCell>
        <mxCell id="dzRAiHNFtbagDPupk4Ih-2" value="" style="shape=sumEllipse;perimeter=ellipsePerimeter;whiteSpace=wrap;html=1;backgroundOutline=1;" vertex="1" parent="1">
          <mxGeometry x="963" y="336" width="53" height="53" as="geometry" />
        </mxCell>
        <mxCell id="dzRAiHNFtbagDPupk4Ih-52" style="edgeStyle=orthogonalEdgeStyle;rounded=0;orthogonalLoop=1;jettySize=auto;html=1;endArrow=none;endFill=0;" edge="1" parent="1" source="dzRAiHNFtbagDPupk4Ih-6" target="dzRAiHNFtbagDPupk4Ih-51">
          <mxGeometry relative="1" as="geometry" />
        </mxCell>
        <mxCell id="dzRAiHNFtbagDPupk4Ih-6" value="&lt;font style=&quot;font-size: 18px;&quot;&gt;학사 졸업&lt;/font&gt;" style="whiteSpace=wrap;html=1;align=center;" vertex="1" parent="1">
          <mxGeometry x="1438" y="423" width="149" height="71" as="geometry" />
        </mxCell>
        <mxCell id="dzRAiHNFtbagDPupk4Ih-18" style="rounded=0;orthogonalLoop=1;jettySize=auto;html=1;endArrow=none;endFill=0;" edge="1" parent="1" source="dzRAiHNFtbagDPupk4Ih-7" target="dzRAiHNFtbagDPupk4Ih-11">
          <mxGeometry relative="1" as="geometry" />
        </mxCell>
        <mxCell id="dzRAiHNFtbagDPupk4Ih-19" style="rounded=0;orthogonalLoop=1;jettySize=auto;html=1;endArrow=none;endFill=0;" edge="1" parent="1" source="dzRAiHNFtbagDPupk4Ih-7" target="dzRAiHNFtbagDPupk4Ih-16">
          <mxGeometry relative="1" as="geometry" />
        </mxCell>
        <mxCell id="dzRAiHNFtbagDPupk4Ih-7" value="&lt;font style=&quot;font-size: 18px;&quot;&gt;학사&lt;/font&gt;" style="whiteSpace=wrap;html=1;align=center;" vertex="1" parent="1">
          <mxGeometry x="399" y="423" width="149" height="71" as="geometry" />
        </mxCell>
        <mxCell id="dzRAiHNFtbagDPupk4Ih-21" style="rounded=0;orthogonalLoop=1;jettySize=auto;html=1;endArrow=none;endFill=0;" edge="1" parent="1" source="dzRAiHNFtbagDPupk4Ih-11" target="dzRAiHNFtbagDPupk4Ih-20">
          <mxGeometry relative="1" as="geometry" />
        </mxCell>
        <mxCell id="dzRAiHNFtbagDPupk4Ih-37" style="rounded=0;orthogonalLoop=1;jettySize=auto;html=1;entryX=0.5;entryY=0;entryDx=0;entryDy=0;endArrow=none;endFill=0;" edge="1" parent="1" source="dzRAiHNFtbagDPupk4Ih-11" target="dzRAiHNFtbagDPupk4Ih-34">
          <mxGeometry relative="1" as="geometry" />
        </mxCell>
        <mxCell id="dzRAiHNFtbagDPupk4Ih-39" style="rounded=0;orthogonalLoop=1;jettySize=auto;html=1;endArrow=none;endFill=0;" edge="1" parent="1" source="dzRAiHNFtbagDPupk4Ih-11" target="dzRAiHNFtbagDPupk4Ih-38">
          <mxGeometry relative="1" as="geometry" />
        </mxCell>
        <mxCell id="dzRAiHNFtbagDPupk4Ih-11" value="&lt;font style=&quot;font-size: 16px;&quot;&gt;수강을&amp;nbsp;&lt;/font&gt;&lt;div style=&quot;font-size: 16px;&quot;&gt;&lt;font style=&quot;font-size: 16px;&quot;&gt;마치다.&lt;/font&gt;&lt;/div&gt;" style="shape=rhombus;perimeter=rhombusPerimeter;whiteSpace=wrap;html=1;align=center;" vertex="1" parent="1">
          <mxGeometry x="298" y="563" width="126" height="66" as="geometry" />
        </mxCell>
        <mxCell id="dzRAiHNFtbagDPupk4Ih-48" style="rounded=0;orthogonalLoop=1;jettySize=auto;html=1;endArrow=none;endFill=0;" edge="1" parent="1" source="dzRAiHNFtbagDPupk4Ih-12" target="dzRAiHNFtbagDPupk4Ih-44">
          <mxGeometry relative="1" as="geometry" />
        </mxCell>
        <mxCell id="dzRAiHNFtbagDPupk4Ih-12" value="&lt;font style=&quot;font-size: 18px;&quot;&gt;석사&lt;/font&gt;" style="whiteSpace=wrap;html=1;align=center;" vertex="1" parent="1">
          <mxGeometry x="1317" y="605" width="149" height="71" as="geometry" />
        </mxCell>
        <mxCell id="dzRAiHNFtbagDPupk4Ih-49" style="rounded=0;orthogonalLoop=1;jettySize=auto;html=1;entryX=0.5;entryY=0;entryDx=0;entryDy=0;endArrow=none;endFill=0;" edge="1" parent="1" source="dzRAiHNFtbagDPupk4Ih-13" target="dzRAiHNFtbagDPupk4Ih-43">
          <mxGeometry relative="1" as="geometry" />
        </mxCell>
        <mxCell id="dzRAiHNFtbagDPupk4Ih-13" value="&lt;font style=&quot;font-size: 18px;&quot;&gt;박사&lt;/font&gt;" style="whiteSpace=wrap;html=1;align=center;" vertex="1" parent="1">
          <mxGeometry x="1567" y="605" width="149" height="71" as="geometry" />
        </mxCell>
        <mxCell id="dzRAiHNFtbagDPupk4Ih-23" style="rounded=0;orthogonalLoop=1;jettySize=auto;html=1;entryX=0.75;entryY=0;entryDx=0;entryDy=0;endArrow=none;endFill=0;" edge="1" parent="1" source="dzRAiHNFtbagDPupk4Ih-16" target="dzRAiHNFtbagDPupk4Ih-20">
          <mxGeometry relative="1" as="geometry" />
        </mxCell>
        <mxCell id="dzRAiHNFtbagDPupk4Ih-29" style="rounded=0;orthogonalLoop=1;jettySize=auto;html=1;entryX=0.5;entryY=0;entryDx=0;entryDy=0;endArrow=none;endFill=0;" edge="1" parent="1" source="dzRAiHNFtbagDPupk4Ih-16" target="dzRAiHNFtbagDPupk4Ih-28">
          <mxGeometry relative="1" as="geometry" />
        </mxCell>
        <mxCell id="dzRAiHNFtbagDPupk4Ih-32" style="rounded=0;orthogonalLoop=1;jettySize=auto;html=1;endArrow=none;endFill=0;" edge="1" parent="1" source="dzRAiHNFtbagDPupk4Ih-16" target="dzRAiHNFtbagDPupk4Ih-30">
          <mxGeometry relative="1" as="geometry" />
        </mxCell>
        <mxCell id="dzRAiHNFtbagDPupk4Ih-16" value="&lt;span style=&quot;font-size: 16px;&quot;&gt;수강&lt;/span&gt;&lt;div&gt;&lt;span style=&quot;font-size: 16px;&quot;&gt;진행중이다.&lt;/span&gt;&lt;/div&gt;" style="shape=rhombus;perimeter=rhombusPerimeter;whiteSpace=wrap;html=1;align=center;" vertex="1" parent="1">
          <mxGeometry x="507" y="563" width="126" height="66" as="geometry" />
        </mxCell>
        <mxCell id="dzRAiHNFtbagDPupk4Ih-40" style="rounded=0;orthogonalLoop=1;jettySize=auto;html=1;endArrow=none;endFill=0;entryX=0.5;entryY=0;entryDx=0;entryDy=0;" edge="1" parent="1" source="dzRAiHNFtbagDPupk4Ih-20" target="dzRAiHNFtbagDPupk4Ih-33">
          <mxGeometry relative="1" as="geometry">
            <mxPoint x="408.8979411352807" y="832.7881401953468" as="targetPoint" />
          </mxGeometry>
        </mxCell>
        <mxCell id="dzRAiHNFtbagDPupk4Ih-41" style="rounded=0;orthogonalLoop=1;jettySize=auto;html=1;endArrow=none;endFill=0;entryX=0.5;entryY=0;entryDx=0;entryDy=0;" edge="1" parent="1" source="dzRAiHNFtbagDPupk4Ih-20" target="dzRAiHNFtbagDPupk4Ih-35">
          <mxGeometry relative="1" as="geometry">
            <mxPoint x="497" y="832" as="targetPoint" />
          </mxGeometry>
        </mxCell>
        <mxCell id="dzRAiHNFtbagDPupk4Ih-72" style="rounded=0;orthogonalLoop=1;jettySize=auto;html=1;entryX=0;entryY=0.5;entryDx=0;entryDy=0;endArrow=none;endFill=0;shape=link;" edge="1" parent="1" source="dzRAiHNFtbagDPupk4Ih-20" target="dzRAiHNFtbagDPupk4Ih-70">
          <mxGeometry relative="1" as="geometry" />
        </mxCell>
        <mxCell id="dzRAiHNFtbagDPupk4Ih-20" value="&lt;font style=&quot;font-size: 18px;&quot;&gt;강의&lt;/font&gt;" style="whiteSpace=wrap;html=1;align=center;" vertex="1" parent="1">
          <mxGeometry x="389" y="743" width="149" height="71" as="geometry" />
        </mxCell>
        <mxCell id="dzRAiHNFtbagDPupk4Ih-24" value="N" style="text;html=1;align=center;verticalAlign=middle;resizable=0;points=[];autosize=1;strokeColor=none;fillColor=none;" vertex="1" parent="1">
          <mxGeometry x="404" y="491" width="27" height="26" as="geometry" />
        </mxCell>
        <mxCell id="dzRAiHNFtbagDPupk4Ih-25" value="N" style="text;html=1;align=center;verticalAlign=middle;resizable=0;points=[];autosize=1;strokeColor=none;fillColor=none;" vertex="1" parent="1">
          <mxGeometry x="511" y="494" width="27" height="26" as="geometry" />
        </mxCell>
        <mxCell id="dzRAiHNFtbagDPupk4Ih-26" value="M" style="text;html=1;align=center;verticalAlign=middle;resizable=0;points=[];autosize=1;strokeColor=none;fillColor=none;" vertex="1" parent="1">
          <mxGeometry x="510.5" y="717" width="28" height="26" as="geometry" />
        </mxCell>
        <mxCell id="dzRAiHNFtbagDPupk4Ih-27" value="M" style="text;html=1;align=center;verticalAlign=middle;resizable=0;points=[];autosize=1;strokeColor=none;fillColor=none;" vertex="1" parent="1">
          <mxGeometry x="396" y="717" width="28" height="26" as="geometry" />
        </mxCell>
        <mxCell id="dzRAiHNFtbagDPupk4Ih-28" value="강의시간" style="ellipse;whiteSpace=wrap;html=1;align=center;" vertex="1" parent="1">
          <mxGeometry x="641" y="609" width="100" height="40" as="geometry" />
        </mxCell>
        <mxCell id="dzRAiHNFtbagDPupk4Ih-30" value="강의장소" style="ellipse;whiteSpace=wrap;html=1;align=center;" vertex="1" parent="1">
          <mxGeometry x="624" y="658" width="100" height="40" as="geometry" />
        </mxCell>
        <mxCell id="dzRAiHNFtbagDPupk4Ih-33" value="과목명" style="ellipse;whiteSpace=wrap;html=1;align=center;" vertex="1" parent="1">
          <mxGeometry x="353" y="881" width="100" height="40" as="geometry" />
        </mxCell>
        <mxCell id="dzRAiHNFtbagDPupk4Ih-34" value="학점" style="ellipse;whiteSpace=wrap;html=1;align=center;" vertex="1" parent="1">
          <mxGeometry x="175" y="589" width="100" height="40" as="geometry" />
        </mxCell>
        <mxCell id="dzRAiHNFtbagDPupk4Ih-35" value="&lt;u&gt;과목코드&lt;/u&gt;" style="ellipse;whiteSpace=wrap;html=1;align=center;" vertex="1" parent="1">
          <mxGeometry x="474.5" y="887" width="100" height="40" as="geometry" />
        </mxCell>
        <mxCell id="dzRAiHNFtbagDPupk4Ih-38" value="날짜" style="ellipse;whiteSpace=wrap;html=1;align=center;" vertex="1" parent="1">
          <mxGeometry x="175" y="635" width="100" height="40" as="geometry" />
        </mxCell>
        <mxCell id="dzRAiHNFtbagDPupk4Ih-45" style="rounded=0;orthogonalLoop=1;jettySize=auto;html=1;endArrow=none;endFill=0;entryX=0.5;entryY=0;entryDx=0;entryDy=0;" edge="1" parent="1" source="dzRAiHNFtbagDPupk4Ih-42" target="dzRAiHNFtbagDPupk4Ih-1">
          <mxGeometry relative="1" as="geometry" />
        </mxCell>
        <mxCell id="dzRAiHNFtbagDPupk4Ih-42" value="&lt;u&gt;학번&lt;/u&gt;" style="ellipse;whiteSpace=wrap;html=1;align=center;" vertex="1" parent="1">
          <mxGeometry x="776" y="172" width="100" height="40" as="geometry" />
        </mxCell>
        <mxCell id="dzRAiHNFtbagDPupk4Ih-43" value="&lt;u&gt;학번&lt;/u&gt;" style="ellipse;whiteSpace=wrap;html=1;align=center;" vertex="1" parent="1">
          <mxGeometry x="1532" y="723" width="100" height="40" as="geometry" />
        </mxCell>
        <mxCell id="dzRAiHNFtbagDPupk4Ih-44" value="&lt;u&gt;학번&lt;/u&gt;" style="ellipse;whiteSpace=wrap;html=1;align=center;" vertex="1" parent="1">
          <mxGeometry x="1301" y="717" width="100" height="40" as="geometry" />
        </mxCell>
        <mxCell id="dzRAiHNFtbagDPupk4Ih-47" style="edgeStyle=orthogonalEdgeStyle;rounded=0;orthogonalLoop=1;jettySize=auto;html=1;endArrow=none;endFill=0;" edge="1" parent="1" source="dzRAiHNFtbagDPupk4Ih-46" target="dzRAiHNFtbagDPupk4Ih-7">
          <mxGeometry relative="1" as="geometry" />
        </mxCell>
        <mxCell id="dzRAiHNFtbagDPupk4Ih-46" value="&lt;u&gt;학번&lt;/u&gt;" style="ellipse;whiteSpace=wrap;html=1;align=center;" vertex="1" parent="1">
          <mxGeometry x="257" y="438.5" width="100" height="40" as="geometry" />
        </mxCell>
        <mxCell id="dzRAiHNFtbagDPupk4Ih-50" value="졸업 여부" style="text;html=1;align=center;verticalAlign=middle;resizable=0;points=[];autosize=1;strokeColor=none;fillColor=none;" vertex="1" parent="1">
          <mxGeometry x="1023" y="354" width="63" height="26" as="geometry" />
        </mxCell>
        <mxCell id="dzRAiHNFtbagDPupk4Ih-53" style="edgeStyle=elbowEdgeStyle;rounded=0;orthogonalLoop=1;jettySize=auto;html=1;elbow=vertical;endArrow=none;endFill=0;" edge="1" parent="1" source="dzRAiHNFtbagDPupk4Ih-51" target="dzRAiHNFtbagDPupk4Ih-12">
          <mxGeometry relative="1" as="geometry" />
        </mxCell>
        <mxCell id="dzRAiHNFtbagDPupk4Ih-54" style="edgeStyle=elbowEdgeStyle;rounded=0;orthogonalLoop=1;jettySize=auto;html=1;elbow=vertical;endArrow=none;endFill=0;" edge="1" parent="1" source="dzRAiHNFtbagDPupk4Ih-51" target="dzRAiHNFtbagDPupk4Ih-13">
          <mxGeometry relative="1" as="geometry" />
        </mxCell>
        <mxCell id="dzRAiHNFtbagDPupk4Ih-51" value="" style="shape=sumEllipse;perimeter=ellipsePerimeter;whiteSpace=wrap;html=1;backgroundOutline=1;" vertex="1" parent="1">
          <mxGeometry x="1486" y="524" width="53" height="53" as="geometry" />
        </mxCell>
        <mxCell id="dzRAiHNFtbagDPupk4Ih-59" style="rounded=0;orthogonalLoop=1;jettySize=auto;html=1;endArrow=none;endFill=0;entryX=0.5;entryY=0;entryDx=0;entryDy=0;" edge="1" parent="1" source="dzRAiHNFtbagDPupk4Ih-55" target="dzRAiHNFtbagDPupk4Ih-1">
          <mxGeometry relative="1" as="geometry" />
        </mxCell>
        <mxCell id="dzRAiHNFtbagDPupk4Ih-55" value="이름" style="ellipse;whiteSpace=wrap;html=1;align=center;" vertex="1" parent="1">
          <mxGeometry x="788" y="124" width="100" height="40" as="geometry" />
        </mxCell>
        <mxCell id="dzRAiHNFtbagDPupk4Ih-62" style="rounded=0;orthogonalLoop=1;jettySize=auto;html=1;endArrow=none;endFill=0;entryX=0.5;entryY=0;entryDx=0;entryDy=0;" edge="1" parent="1" source="dzRAiHNFtbagDPupk4Ih-56" target="dzRAiHNFtbagDPupk4Ih-1">
          <mxGeometry relative="1" as="geometry" />
        </mxCell>
        <mxCell id="dzRAiHNFtbagDPupk4Ih-56" value="성별" style="ellipse;whiteSpace=wrap;html=1;align=center;" vertex="1" parent="1">
          <mxGeometry x="956" y="78" width="100" height="40" as="geometry" />
        </mxCell>
        <mxCell id="dzRAiHNFtbagDPupk4Ih-60" style="rounded=0;orthogonalLoop=1;jettySize=auto;html=1;endArrow=none;endFill=0;entryX=0.5;entryY=0;entryDx=0;entryDy=0;" edge="1" parent="1" source="dzRAiHNFtbagDPupk4Ih-57" target="dzRAiHNFtbagDPupk4Ih-1">
          <mxGeometry relative="1" as="geometry" />
        </mxCell>
        <mxCell id="dzRAiHNFtbagDPupk4Ih-57" value="도시" style="ellipse;whiteSpace=wrap;html=1;align=center;" vertex="1" parent="1">
          <mxGeometry x="853" y="84" width="100" height="40" as="geometry" />
        </mxCell>
        <mxCell id="dzRAiHNFtbagDPupk4Ih-65" style="rounded=0;orthogonalLoop=1;jettySize=auto;html=1;endArrow=none;endFill=0;entryX=0.5;entryY=0;entryDx=0;entryDy=0;" edge="1" parent="1" source="dzRAiHNFtbagDPupk4Ih-58" target="dzRAiHNFtbagDPupk4Ih-1">
          <mxGeometry relative="1" as="geometry" />
        </mxCell>
        <mxCell id="dzRAiHNFtbagDPupk4Ih-58" value="출생지" style="ellipse;whiteSpace=wrap;html=1;align=center;" vertex="1" parent="1">
          <mxGeometry x="1064" y="78" width="100" height="40" as="geometry" />
        </mxCell>
        <mxCell id="dzRAiHNFtbagDPupk4Ih-66" style="rounded=0;orthogonalLoop=1;jettySize=auto;html=1;endArrow=none;endFill=0;entryX=0.5;entryY=0;entryDx=0;entryDy=0;exitX=0.5;exitY=1;exitDx=0;exitDy=0;" edge="1" parent="1" source="dzRAiHNFtbagDPupk4Ih-114" target="dzRAiHNFtbagDPupk4Ih-1">
          <mxGeometry relative="1" as="geometry">
            <mxPoint x="1103.9493180750817" y="167.3505897640398" as="sourcePoint" />
          </mxGeometry>
        </mxCell>
        <mxCell id="dzRAiHNFtbagDPupk4Ih-84" style="rounded=0;orthogonalLoop=1;jettySize=auto;html=1;endArrow=none;endFill=0;exitX=0.5;exitY=1;exitDx=0;exitDy=0;" edge="1" parent="1" source="dzRAiHNFtbagDPupk4Ih-113" target="dzRAiHNFtbagDPupk4Ih-1">
          <mxGeometry relative="1" as="geometry">
            <mxPoint x="1226.8322184796607" y="160.2167627422648" as="sourcePoint" />
          </mxGeometry>
        </mxCell>
        <mxCell id="dzRAiHNFtbagDPupk4Ih-69" value="&lt;font style=&quot;font-size: 18px;&quot;&gt;교수&lt;/font&gt;" style="whiteSpace=wrap;html=1;align=center;" vertex="1" parent="1">
          <mxGeometry x="899" y="743" width="149" height="71" as="geometry" />
        </mxCell>
        <mxCell id="dzRAiHNFtbagDPupk4Ih-73" style="edgeStyle=orthogonalEdgeStyle;rounded=0;orthogonalLoop=1;jettySize=auto;html=1;entryX=0;entryY=0.5;entryDx=0;entryDy=0;endArrow=none;endFill=0;" edge="1" parent="1" source="dzRAiHNFtbagDPupk4Ih-70" target="dzRAiHNFtbagDPupk4Ih-69">
          <mxGeometry relative="1" as="geometry" />
        </mxCell>
        <mxCell id="dzRAiHNFtbagDPupk4Ih-70" value="&lt;span style=&quot;font-size: 16px;&quot;&gt;가르치다&lt;/span&gt;" style="shape=rhombus;perimeter=rhombusPerimeter;whiteSpace=wrap;html=1;align=center;" vertex="1" parent="1">
          <mxGeometry x="662" y="745.5" width="126" height="66" as="geometry" />
        </mxCell>
        <mxCell id="dzRAiHNFtbagDPupk4Ih-76" style="rounded=0;orthogonalLoop=1;jettySize=auto;html=1;entryX=0;entryY=0.5;entryDx=0;entryDy=0;endArrow=none;endFill=0;shape=link;" edge="1" parent="1" source="dzRAiHNFtbagDPupk4Ih-75" target="dzRAiHNFtbagDPupk4Ih-12">
          <mxGeometry relative="1" as="geometry" />
        </mxCell>
        <mxCell id="dzRAiHNFtbagDPupk4Ih-77" style="rounded=0;orthogonalLoop=1;jettySize=auto;html=1;entryX=1;entryY=0.5;entryDx=0;entryDy=0;endArrow=none;endFill=0;" edge="1" parent="1" source="dzRAiHNFtbagDPupk4Ih-75" target="dzRAiHNFtbagDPupk4Ih-69">
          <mxGeometry relative="1" as="geometry" />
        </mxCell>
        <mxCell id="dzRAiHNFtbagDPupk4Ih-75" value="&lt;span style=&quot;font-size: 16px;&quot;&gt;관리하다&lt;/span&gt;" style="shape=rhombus;perimeter=rhombusPerimeter;whiteSpace=wrap;html=1;align=center;" vertex="1" parent="1">
          <mxGeometry x="1100" y="645" width="126" height="66" as="geometry" />
        </mxCell>
        <mxCell id="dzRAiHNFtbagDPupk4Ih-78" value="1" style="text;html=1;align=center;verticalAlign=middle;resizable=0;points=[];autosize=1;strokeColor=none;fillColor=none;" vertex="1" parent="1">
          <mxGeometry x="863" y="749" width="25" height="26" as="geometry" />
        </mxCell>
        <mxCell id="dzRAiHNFtbagDPupk4Ih-79" value="N" style="text;html=1;align=center;verticalAlign=middle;resizable=0;points=[];autosize=1;strokeColor=none;fillColor=none;" vertex="1" parent="1">
          <mxGeometry x="539.5" y="745.5" width="27" height="26" as="geometry" />
        </mxCell>
        <mxCell id="dzRAiHNFtbagDPupk4Ih-81" value="N" style="text;html=1;align=center;verticalAlign=middle;resizable=0;points=[];autosize=1;strokeColor=none;fillColor=none;" vertex="1" parent="1">
          <mxGeometry x="1279" y="609" width="27" height="26" as="geometry" />
        </mxCell>
        <mxCell id="dzRAiHNFtbagDPupk4Ih-82" value="1" style="text;html=1;align=center;verticalAlign=middle;resizable=0;points=[];autosize=1;strokeColor=none;fillColor=none;" vertex="1" parent="1">
          <mxGeometry x="1052" y="733" width="25" height="26" as="geometry" />
        </mxCell>
        <mxCell id="dzRAiHNFtbagDPupk4Ih-89" style="rounded=0;orthogonalLoop=1;jettySize=auto;html=1;entryX=0.5;entryY=1;entryDx=0;entryDy=0;endArrow=none;endFill=0;" edge="1" parent="1" source="dzRAiHNFtbagDPupk4Ih-85" target="dzRAiHNFtbagDPupk4Ih-13">
          <mxGeometry relative="1" as="geometry" />
        </mxCell>
        <mxCell id="dzRAiHNFtbagDPupk4Ih-85" value="논문제목" style="ellipse;whiteSpace=wrap;html=1;align=center;" vertex="1" parent="1">
          <mxGeometry x="1589" y="769" width="100" height="40" as="geometry" />
        </mxCell>
        <mxCell id="dzRAiHNFtbagDPupk4Ih-88" style="rounded=0;orthogonalLoop=1;jettySize=auto;html=1;entryX=0.5;entryY=1;entryDx=0;entryDy=0;endArrow=none;endFill=0;" edge="1" parent="1" source="dzRAiHNFtbagDPupk4Ih-86" target="dzRAiHNFtbagDPupk4Ih-13">
          <mxGeometry relative="1" as="geometry" />
        </mxCell>
        <mxCell id="dzRAiHNFtbagDPupk4Ih-86" value="연구분야" style="ellipse;whiteSpace=wrap;html=1;align=center;" vertex="1" parent="1">
          <mxGeometry x="1652" y="717" width="100" height="40" as="geometry" />
        </mxCell>
        <mxCell id="dzRAiHNFtbagDPupk4Ih-94" style="rounded=0;orthogonalLoop=1;jettySize=auto;html=1;entryX=0.5;entryY=1;entryDx=0;entryDy=0;endArrow=none;endFill=0;" edge="1" parent="1" source="dzRAiHNFtbagDPupk4Ih-91" target="dzRAiHNFtbagDPupk4Ih-69">
          <mxGeometry relative="1" as="geometry" />
        </mxCell>
        <mxCell id="dzRAiHNFtbagDPupk4Ih-91" value="이름&lt;span style=&quot;color: rgba(0, 0, 0, 0); font-family: monospace; font-size: 0px; text-align: start; text-wrap: nowrap;&quot;&gt;%3CmxGraphModel%3E%3Croot%3E%3CmxCell%20id%3D%220%22%2F%3E%3CmxCell%20id%3D%221%22%20parent%3D%220%22%2F%3E%3CmxCell%20id%3D%222%22%20value%3D%22%EB%85%BC%EB%AC%B8%EC%A0%9C%EB%AA%A9%22%20style%3D%22ellipse%3BwhiteSpace%3Dwrap%3Bhtml%3D1%3Balign%3Dcenter%3B%22%20vertex%3D%221%22%20parent%3D%221%22%3E%3CmxGeometry%20x%3D%221429%22%20y%3D%22700%22%20width%3D%22100%22%20height%3D%2240%22%20as%3D%22geometry%22%2F%3E%3C%2FmxCell%3E%3C%2Froot%3E%3C%2FmxGraphModel%3E&lt;/span&gt;" style="ellipse;whiteSpace=wrap;html=1;align=center;" vertex="1" parent="1">
          <mxGeometry x="804" y="881" width="100" height="40" as="geometry" />
        </mxCell>
        <mxCell id="dzRAiHNFtbagDPupk4Ih-96" style="rounded=0;orthogonalLoop=1;jettySize=auto;html=1;entryX=0.5;entryY=1;entryDx=0;entryDy=0;endArrow=none;endFill=0;" edge="1" parent="1" source="dzRAiHNFtbagDPupk4Ih-92" target="dzRAiHNFtbagDPupk4Ih-69">
          <mxGeometry relative="1" as="geometry" />
        </mxCell>
        <mxCell id="dzRAiHNFtbagDPupk4Ih-92" value="나이" style="ellipse;whiteSpace=wrap;html=1;align=center;" vertex="1" parent="1">
          <mxGeometry x="969" y="944" width="100" height="40" as="geometry" />
        </mxCell>
        <mxCell id="dzRAiHNFtbagDPupk4Ih-95" style="rounded=0;orthogonalLoop=1;jettySize=auto;html=1;entryX=0.5;entryY=1;entryDx=0;entryDy=0;endArrow=none;endFill=0;" edge="1" parent="1" source="dzRAiHNFtbagDPupk4Ih-93" target="dzRAiHNFtbagDPupk4Ih-69">
          <mxGeometry relative="1" as="geometry" />
        </mxCell>
        <mxCell id="dzRAiHNFtbagDPupk4Ih-93" value="출생지" style="ellipse;whiteSpace=wrap;html=1;align=center;" vertex="1" parent="1">
          <mxGeometry x="872" y="978" width="100" height="40" as="geometry" />
        </mxCell>
        <mxCell id="dzRAiHNFtbagDPupk4Ih-102" style="rounded=0;orthogonalLoop=1;jettySize=auto;html=1;endArrow=none;endFill=0;entryX=0.5;entryY=1;entryDx=0;entryDy=0;" edge="1" parent="1" source="dzRAiHNFtbagDPupk4Ih-97" target="dzRAiHNFtbagDPupk4Ih-69">
          <mxGeometry relative="1" as="geometry">
            <mxPoint x="944" y="814" as="targetPoint" />
          </mxGeometry>
        </mxCell>
        <mxCell id="dzRAiHNFtbagDPupk4Ih-97" value="&lt;font color=&quot;#ff0008&quot;&gt;학과&lt;/font&gt;" style="ellipse;whiteSpace=wrap;html=1;align=center;" vertex="1" parent="1">
          <mxGeometry x="813" y="940" width="100" height="40" as="geometry" />
        </mxCell>
        <mxCell id="dzRAiHNFtbagDPupk4Ih-103" style="rounded=0;orthogonalLoop=1;jettySize=auto;html=1;entryX=0.5;entryY=1;entryDx=0;entryDy=0;endArrow=none;endFill=0;" edge="1" parent="1" source="dzRAiHNFtbagDPupk4Ih-98" target="dzRAiHNFtbagDPupk4Ih-69">
          <mxGeometry relative="1" as="geometry" />
        </mxCell>
        <mxCell id="dzRAiHNFtbagDPupk4Ih-98" value="전화번호" style="ellipse;whiteSpace=wrap;html=1;align=center;" vertex="1" parent="1">
          <mxGeometry x="910" y="891" width="100" height="40" as="geometry" />
        </mxCell>
        <mxCell id="dzRAiHNFtbagDPupk4Ih-106" style="rounded=0;orthogonalLoop=1;jettySize=auto;html=1;endArrow=none;endFill=0;entryX=0.5;entryY=1;entryDx=0;entryDy=0;" edge="1" parent="1" source="dzRAiHNFtbagDPupk4Ih-99" target="dzRAiHNFtbagDPupk4Ih-69">
          <mxGeometry relative="1" as="geometry" />
        </mxCell>
        <mxCell id="dzRAiHNFtbagDPupk4Ih-99" value="상태" style="ellipse;whiteSpace=wrap;html=1;align=center;" vertex="1" parent="1">
          <mxGeometry x="782" y="841" width="100" height="40" as="geometry" />
        </mxCell>
        <mxCell id="dzRAiHNFtbagDPupk4Ih-104" style="rounded=0;orthogonalLoop=1;jettySize=auto;html=1;endArrow=none;endFill=0;entryX=0.5;entryY=1;entryDx=0;entryDy=0;" edge="1" parent="1" source="dzRAiHNFtbagDPupk4Ih-100" target="dzRAiHNFtbagDPupk4Ih-69">
          <mxGeometry relative="1" as="geometry" />
        </mxCell>
        <mxCell id="dzRAiHNFtbagDPupk4Ih-100" value="주제" style="ellipse;whiteSpace=wrap;html=1;align=center;" vertex="1" parent="1">
          <mxGeometry x="1016" y="897" width="100" height="40" as="geometry" />
        </mxCell>
        <mxCell id="dzRAiHNFtbagDPupk4Ih-105" style="rounded=0;orthogonalLoop=1;jettySize=auto;html=1;entryX=0.5;entryY=1;entryDx=0;entryDy=0;endArrow=none;endFill=0;" edge="1" parent="1" source="dzRAiHNFtbagDPupk4Ih-101" target="dzRAiHNFtbagDPupk4Ih-69">
          <mxGeometry relative="1" as="geometry" />
        </mxCell>
        <mxCell id="dzRAiHNFtbagDPupk4Ih-101" value="직위" style="ellipse;whiteSpace=wrap;html=1;align=center;" vertex="1" parent="1">
          <mxGeometry x="1082" y="847" width="100" height="40" as="geometry" />
        </mxCell>
        <mxCell id="dzRAiHNFtbagDPupk4Ih-112" style="rounded=0;orthogonalLoop=1;jettySize=auto;html=1;endArrow=none;endFill=0;" edge="1" parent="1" source="dzRAiHNFtbagDPupk4Ih-108" target="dzRAiHNFtbagDPupk4Ih-113">
          <mxGeometry relative="1" as="geometry" />
        </mxCell>
        <mxCell id="dzRAiHNFtbagDPupk4Ih-108" value="살았던 기간" style="ellipse;whiteSpace=wrap;html=1;align=center;" vertex="1" parent="1">
          <mxGeometry x="1287" y="72" width="100" height="40" as="geometry" />
        </mxCell>
        <mxCell id="dzRAiHNFtbagDPupk4Ih-111" style="rounded=0;orthogonalLoop=1;jettySize=auto;html=1;entryX=0.5;entryY=0;entryDx=0;entryDy=0;endArrow=none;endFill=0;" edge="1" parent="1" source="dzRAiHNFtbagDPupk4Ih-109" target="dzRAiHNFtbagDPupk4Ih-113">
          <mxGeometry relative="1" as="geometry" />
        </mxCell>
        <mxCell id="dzRAiHNFtbagDPupk4Ih-109" value="도로명주소" style="ellipse;whiteSpace=wrap;html=1;align=center;" vertex="1" parent="1">
          <mxGeometry x="1182" y="65" width="100" height="40" as="geometry" />
        </mxCell>
        <mxCell id="dzRAiHNFtbagDPupk4Ih-113" value="이전 주소" style="ellipse;shape=doubleEllipse;margin=3;whiteSpace=wrap;html=1;align=center;" vertex="1" parent="1">
          <mxGeometry x="1197" y="118" width="100" height="40" as="geometry" />
        </mxCell>
        <mxCell id="dzRAiHNFtbagDPupk4Ih-114" value="가족거주지" style="ellipse;shape=doubleEllipse;margin=3;whiteSpace=wrap;html=1;align=center;" vertex="1" parent="1">
          <mxGeometry x="1086" y="135" width="100" height="40" as="geometry" />
        </mxCell>
      </root>
    </mxGraphModel>
  </diagram>
</mxfile>
